<svg width="128" height="128" viewBox="0 0 128 128" fill="none" xmlns="http://www.w3.org/2000/svg">
<g clip-path="url(#clip0_438_44)">
<path fill-rule="evenodd" clip-rule="evenodd" d="M100.459 36.8198L112.303 48.663L100.482 60.4831L88.6392 48.64L100.459 36.8198ZM82.9824 54.2969L94.8255 66.14L63.6396 97.3259L32.4537 66.14L44.2969 54.2969L60.1041 70.1041C62.0567 72.0567 65.2225 72.0567 67.1751 70.1041L82.9824 54.2969ZM82.9824 42.9831L94.8026 31.163L67.1751 3.53553C65.2225 1.58291 62.0567 1.58292 60.1041 3.53553L32.4767 31.163L44.2969 42.9831L60.1041 27.1759C62.0567 25.2233 65.2225 25.2233 67.1751 27.1759L82.9824 42.9831ZM49.9537 48.64L63.6396 34.9541L77.3255 48.64L63.6396 62.3259L49.9537 48.64ZM38.64 48.64L26.8198 36.8198L14.9767 48.663L26.7969 60.4831L38.64 48.64ZM21.14 66.14L9.3198 54.3198L3.53553 60.1041C1.58291 62.0567 1.58291 65.2225 3.53554 67.1751L11.8202 75.4598L21.14 66.14ZM109.802 81.1167L67.1751 123.744C65.2225 125.696 62.0567 125.696 60.1041 123.744L17.477 81.1167L26.7969 71.7969L60.1041 105.104C62.0567 107.057 65.2225 107.057 67.1751 105.104L100.482 71.7969L109.802 81.1167ZM115.459 75.4598L123.744 67.1751C125.696 65.2225 125.696 62.0567 123.744 60.1041L117.959 54.3198L106.139 66.14L115.459 75.4598Z" fill="#8355F5"/>
</g>
<defs>
<clipPath id="clip0_438_44">
<rect width="90" height="90" fill="white" transform="translate(0 63.6396) rotate(-45)"/>
</clipPath>
</defs>
</svg>
