<svg width="128" height="128" viewBox="0 0 128 128" fill="none" xmlns="http://www.w3.org/2000/svg">
<g clip-path="url(#clip0_438_44)">
<path fill-rule="evenodd" clip-rule="evenodd" d="M105.459 41.8198L115.131 51.4914L93.3108 73.3116L83.6392 63.64L105.459 41.8198ZM80.8108 66.4684L90.4824 76.14L64.3467 102.276C63.9562 102.666 63.323 102.666 62.9325 102.276L36.7969 76.14L46.4684 66.4684L60.1041 80.1041C62.0567 82.0567 65.2225 82.0567 67.1751 80.1041L80.8108 66.4684ZM80.8108 60.8116L102.631 38.9914L67.1751 3.53553C65.2225 1.58291 62.0567 1.58292 60.1041 3.53553L24.6482 38.9914L46.4684 60.8116L60.1041 47.1759C62.0567 45.2233 65.2225 45.2233 67.1751 47.1759L80.8108 60.8116ZM49.2969 63.64L62.9325 50.0044C63.323 49.6138 63.9562 49.6138 64.3467 50.0044L77.9824 63.64L64.3467 77.2756C63.9562 77.6662 63.323 77.6662 62.9325 77.2756L49.2969 63.64ZM43.64 63.64L21.8198 41.8198L12.1482 51.4914L33.9684 73.3116L43.64 63.64ZM31.14 76.14L9.3198 54.3198L3.53553 60.1041C1.58291 62.0567 1.58291 65.2225 3.53554 67.1751L21.8202 85.4598L31.14 76.14ZM102.631 88.2882L67.1751 123.744C65.2225 125.696 62.0567 125.696 60.1041 123.744L24.6486 88.2882L33.9684 78.9684L60.1041 105.104C62.0567 107.057 65.2225 107.057 67.1751 105.104L93.3108 78.9684L102.631 88.2882ZM105.459 85.4598L123.744 67.1751C125.696 65.2225 125.696 62.0567 123.744 60.1041L117.959 54.3198L96.1392 76.14L105.459 85.4598Z" fill="#8355F5"/>
</g>
<defs>
<clipPath id="clip0_438_44">
<rect width="90" height="90" fill="white" transform="translate(0 63.6396) rotate(-45)"/>
</clipPath>
</defs>
</svg>
